# xmcd
#
# Track frame offsets:
#	150
#	21023
#	42946
#	59792
#	82750
#	101859
#	124767
#	144654
#	167034
#	186950
#	209177
#
# Disc length: 2897 seconds
# Revision: 0
# Processed by: cddbd v1.5.2PL0 Copyright (c) Steve Scherf et al.
# Submitted via: dBpowerAMP V12.0
#
DISCID=a30b4f0b
DTITLE=Vasti Jackson - New Orleans Rhythm Soul Blues
DYEAR=2013
DGENRE=Blues
TTITLE0=Taste of New Orleans
TTITLE1=Going to Bogalusa
TTITLE2=Southern Girl
TTITLE3=I'm So Glad
TTITLE4=Exclusively
TTITLE5=Walking in the Rhythm of Love
TTITLE6=Please, Don't Come Home
TTITLE7=Rollin' and Tumblin'
TTITLE8=The Blues Made Me
TTITLE9=Brother's Keeper
TTITLE10=I'm So Glad (part 2)
EXTD=
EXTT0=
EXTT1=
EXTT2=
EXTT3=
EXTT4=
EXTT5=
EXTT6=
EXTT7=
EXTT8=
EXTT9=
EXTT10=
PLAYORDER=
